<mxfile host="app.diagrams.net" modified="2021-05-24T14:34:37.104Z" agent="5.0 (Windows NT 10.0; Win64; x64) AppleWebKit/537.36 (KHTML, like Gecko) Chrome/92.0.4512.6 Safari/537.36" etag="wtmILZ7xtN2vpI1Vtc68" version="14.7.0" type="github" pages="5">
  <diagram id="kgpKYQtTHZ0yAKxKKP6v" name="Page-1">
    <mxGraphModel dx="868" dy="450" grid="1" gridSize="10" guides="1" tooltips="1" connect="1" arrows="1" fold="1" page="1" pageScale="1" pageWidth="850" pageHeight="1100" math="0" shadow="0">
      <root>
        <mxCell id="0" />
        <mxCell id="1" parent="0" />
        <mxCell id="3nuBFxr9cyL0pnOWT2aG-1" value="Utilisateur" style="shape=umlLifeline;perimeter=lifelinePerimeter;container=1;collapsible=0;recursiveResize=0;rounded=0;shadow=0;strokeWidth=1;" parent="1" vertex="1">
          <mxGeometry x="63" y="235" width="100" height="175" as="geometry" />
        </mxCell>
        <mxCell id="3nuBFxr9cyL0pnOWT2aG-2" value="" style="points=[];perimeter=orthogonalPerimeter;rounded=0;shadow=0;strokeWidth=1;" parent="3nuBFxr9cyL0pnOWT2aG-1" vertex="1">
          <mxGeometry x="45" y="77.5" width="10" height="30" as="geometry" />
        </mxCell>
        <mxCell id="3nuBFxr9cyL0pnOWT2aG-5" value="Communication App" style="shape=umlLifeline;perimeter=lifelinePerimeter;container=1;collapsible=0;recursiveResize=0;rounded=0;shadow=0;strokeWidth=1;" parent="1" vertex="1">
          <mxGeometry x="410" y="235" width="130" height="185" as="geometry" />
        </mxCell>
        <mxCell id="3nuBFxr9cyL0pnOWT2aG-8" value="S&#39;authentifier" style="verticalAlign=bottom;endArrow=block;entryX=0;entryY=0;shadow=0;strokeWidth=1;exitX=0.5;exitY=0.017;exitDx=0;exitDy=0;exitPerimeter=0;" parent="1" source="3nuBFxr9cyL0pnOWT2aG-2" edge="1">
          <mxGeometry relative="1" as="geometry">
            <mxPoint x="170" y="313" as="sourcePoint" />
            <mxPoint x="470" y="312.5" as="targetPoint" />
          </mxGeometry>
        </mxCell>
        <mxCell id="3nuBFxr9cyL0pnOWT2aG-9" value="Authentification réussie" style="verticalAlign=bottom;endArrow=block;shadow=0;strokeWidth=1;rounded=0;dashed=1;exitX=0.9;exitY=0.983;exitDx=0;exitDy=0;exitPerimeter=0;" parent="1" edge="1" source="lYeT7n--vaMHxevAvTTJ-1">
          <mxGeometry relative="1" as="geometry">
            <mxPoint x="446" y="342.5" as="sourcePoint" />
            <mxPoint x="110" y="342.5" as="targetPoint" />
            <Array as="points">
              <mxPoint x="271" y="342.5" />
            </Array>
          </mxGeometry>
        </mxCell>
        <mxCell id="LxWpGrZLMJk06Pz4Usji-19" value="" style="html=1;verticalAlign=bottom;endArrow=block;strokeColor=#000000;exitX=0;exitY=1;exitDx=0;exitDy=0;dashed=1;" parent="1" edge="1">
          <mxGeometry width="80" relative="1" as="geometry">
            <mxPoint x="630" y="270" as="sourcePoint" />
            <mxPoint x="560" y="320" as="targetPoint" />
          </mxGeometry>
        </mxCell>
        <mxCell id="nQvG077Q6Z97pxdQFhXj-211" value="&lt;div style=&quot;text-align: left&quot;&gt;&lt;br&gt;&lt;/div&gt;&lt;div style=&quot;text-align: left&quot;&gt;&lt;span&gt;-Vérification des identifiants&lt;/span&gt;&lt;/div&gt;&lt;div style=&quot;text-align: left&quot;&gt;&lt;span&gt;-Vérification du statu du compte&lt;/span&gt;&lt;/div&gt;&lt;div style=&quot;text-align: left&quot;&gt;&lt;span&gt;&amp;nbsp; (activé / désactivé)&lt;/span&gt;&lt;/div&gt;&lt;div style=&quot;text-align: left&quot;&gt;&lt;span&gt;-Vérification type de compte&lt;/span&gt;&lt;/div&gt;" style="html=1;dropTarget=0;" parent="1" vertex="1">
          <mxGeometry x="630" y="202.5" width="180" height="110" as="geometry" />
        </mxCell>
        <mxCell id="nQvG077Q6Z97pxdQFhXj-212" value="" style="shape=module;jettyWidth=8;jettyHeight=4;" parent="nQvG077Q6Z97pxdQFhXj-211" vertex="1">
          <mxGeometry x="1" width="20" height="20" relative="1" as="geometry">
            <mxPoint x="-27" y="7" as="offset" />
          </mxGeometry>
        </mxCell>
        <mxCell id="lYeT7n--vaMHxevAvTTJ-1" value="" style="points=[];perimeter=orthogonalPerimeter;rounded=0;shadow=0;strokeWidth=1;" vertex="1" parent="1">
          <mxGeometry x="470" y="312.5" width="10" height="30" as="geometry" />
        </mxCell>
        <mxCell id="lYeT7n--vaMHxevAvTTJ-3" value="Vérification" style="edgeStyle=orthogonalEdgeStyle;html=1;align=left;spacingLeft=2;endArrow=block;rounded=0;entryX=1;entryY=0;" edge="1" parent="1">
          <mxGeometry relative="1" as="geometry">
            <mxPoint x="480" y="317.5" as="sourcePoint" />
            <Array as="points">
              <mxPoint x="505" y="317.5" />
            </Array>
            <mxPoint x="480" y="337.5" as="targetPoint" />
          </mxGeometry>
        </mxCell>
      </root>
    </mxGraphModel>
  </diagram>
  <diagram id="XLkgii9C2WFCZE07nWrd" name="Gestion des contacts">
    <mxGraphModel dx="868" dy="450" grid="1" gridSize="10" guides="1" tooltips="1" connect="1" arrows="1" fold="1" page="1" pageScale="1" pageWidth="827" pageHeight="1169" math="0" shadow="0">
      <root>
        <mxCell id="py83D3w0sONc9merwJDn-0" />
        <mxCell id="py83D3w0sONc9merwJDn-1" parent="py83D3w0sONc9merwJDn-0" />
        <mxCell id="6Ywxdm_K0rP7M04DCndK-0" value="API Communication App" style="shape=umlLifeline;perimeter=lifelinePerimeter;container=1;collapsible=0;recursiveResize=0;rounded=0;shadow=0;strokeWidth=1;" parent="py83D3w0sONc9merwJDn-1" vertex="1">
          <mxGeometry x="710" y="216" width="135" height="134" as="geometry" />
        </mxCell>
        <mxCell id="6Ywxdm_K0rP7M04DCndK-1" value="Communication App" style="shape=umlLifeline;perimeter=lifelinePerimeter;container=1;collapsible=0;recursiveResize=0;rounded=0;shadow=0;strokeWidth=1;" parent="py83D3w0sONc9merwJDn-1" vertex="1">
          <mxGeometry x="316.5" y="216" width="120" height="134" as="geometry" />
        </mxCell>
        <mxCell id="6Ywxdm_K0rP7M04DCndK-2" value="Supérieur" style="shape=umlLifeline;perimeter=lifelinePerimeter;container=1;collapsible=0;recursiveResize=0;rounded=0;shadow=0;strokeWidth=1;" parent="py83D3w0sONc9merwJDn-1" vertex="1">
          <mxGeometry x="21.5" y="218" width="100" height="132" as="geometry" />
        </mxCell>
        <mxCell id="6Ywxdm_K0rP7M04DCndK-28" value="" style="points=[];perimeter=orthogonalPerimeter;rounded=0;shadow=0;strokeWidth=1;" parent="py83D3w0sONc9merwJDn-1" vertex="1">
          <mxGeometry x="66.5" y="280" width="10" height="30" as="geometry" />
        </mxCell>
        <mxCell id="6Ywxdm_K0rP7M04DCndK-29" value="" style="points=[];perimeter=orthogonalPerimeter;rounded=0;shadow=0;strokeWidth=1;" parent="py83D3w0sONc9merwJDn-1" vertex="1">
          <mxGeometry x="371.5" y="280" width="10" height="30" as="geometry" />
        </mxCell>
        <mxCell id="6Ywxdm_K0rP7M04DCndK-30" value="Attribution d&#39;un numéro" style="html=1;verticalAlign=bottom;endArrow=block;strokeColor=#000000;" parent="py83D3w0sONc9merwJDn-1" edge="1">
          <mxGeometry width="80" relative="1" as="geometry">
            <mxPoint x="71" y="280.0000000000002" as="sourcePoint" />
            <mxPoint x="370" y="280" as="targetPoint" />
          </mxGeometry>
        </mxCell>
        <mxCell id="6Ywxdm_K0rP7M04DCndK-31" value="Information numéro" style="html=1;verticalAlign=bottom;endArrow=block;strokeColor=#000000;entryX=0.3;entryY=1;entryDx=0;entryDy=0;entryPerimeter=0;" parent="py83D3w0sONc9merwJDn-1" edge="1">
          <mxGeometry width="80" relative="1" as="geometry">
            <mxPoint x="370" y="309" as="sourcePoint" />
            <mxPoint x="74.5" y="309.00999999999976" as="targetPoint" />
          </mxGeometry>
        </mxCell>
        <mxCell id="6Ywxdm_K0rP7M04DCndK-32" value="" style="points=[];perimeter=orthogonalPerimeter;rounded=0;shadow=0;strokeWidth=1;" parent="py83D3w0sONc9merwJDn-1" vertex="1">
          <mxGeometry x="772.5" y="285" width="10" height="20.01" as="geometry" />
        </mxCell>
        <mxCell id="6Ywxdm_K0rP7M04DCndK-33" value="Envoi de la Requête d&#39;attribution de numéro (Envoi numéro, ID Utilisateur)" style="html=1;verticalAlign=bottom;endArrow=block;strokeColor=#000000;" parent="py83D3w0sONc9merwJDn-1" edge="1">
          <mxGeometry x="-0.0601" y="4" width="80" relative="1" as="geometry">
            <mxPoint x="382" y="286" as="sourcePoint" />
            <mxPoint x="776" y="285" as="targetPoint" />
            <Array as="points">
              <mxPoint x="586" y="286" />
            </Array>
            <mxPoint as="offset" />
          </mxGeometry>
        </mxCell>
        <mxCell id="6Ywxdm_K0rP7M04DCndK-34" value="" style="endArrow=blockThin;endFill=1;endSize=12;html=1;dashed=1;entryX=1.15;entryY=0.767;entryDx=0;entryDy=0;entryPerimeter=0;" parent="py83D3w0sONc9merwJDn-1" edge="1">
          <mxGeometry width="160" relative="1" as="geometry">
            <mxPoint x="771.5" y="303.01" as="sourcePoint" />
            <mxPoint x="382" y="303.01" as="targetPoint" />
          </mxGeometry>
        </mxCell>
        <mxCell id="6Ywxdm_K0rP7M04DCndK-35" value="Information numéro" style="text;html=1;align=center;verticalAlign=middle;resizable=0;points=[];autosize=1;strokeColor=none;" parent="py83D3w0sONc9merwJDn-1" vertex="1">
          <mxGeometry x="520" y="285" width="120" height="20" as="geometry" />
        </mxCell>
        <mxCell id="k2xxUavXT1q9RujqBY_z-0" value="" style="shape=umlActor;verticalLabelPosition=bottom;verticalAlign=top;html=1;" vertex="1" parent="py83D3w0sONc9merwJDn-1">
          <mxGeometry x="56.5" y="150" width="30" height="60" as="geometry" />
        </mxCell>
      </root>
    </mxGraphModel>
  </diagram>
  <diagram id="hR465VxKL99EB0zzIP53" name="Gestion des taches">
    <mxGraphModel dx="496" dy="257" grid="1" gridSize="10" guides="1" tooltips="1" connect="1" arrows="1" fold="1" page="1" pageScale="1" pageWidth="827" pageHeight="1169" math="0" shadow="0">
      <root>
        <mxCell id="O8rrX48du7Tco0QoKG7b-0" />
        <mxCell id="O8rrX48du7Tco0QoKG7b-1" parent="O8rrX48du7Tco0QoKG7b-0" />
        <mxCell id="PkltneUjERe1M2wVwvvq-0" value="API Communication App" style="shape=umlLifeline;perimeter=lifelinePerimeter;container=1;collapsible=0;recursiveResize=0;rounded=0;shadow=0;strokeWidth=1;" parent="O8rrX48du7Tco0QoKG7b-1" vertex="1">
          <mxGeometry x="710" y="120" width="135" height="180" as="geometry" />
        </mxCell>
        <mxCell id="O8rrX48du7Tco0QoKG7b-2" value="Communication App" style="shape=umlLifeline;perimeter=lifelinePerimeter;container=1;collapsible=0;recursiveResize=0;rounded=0;shadow=0;strokeWidth=1;" parent="O8rrX48du7Tco0QoKG7b-1" vertex="1">
          <mxGeometry x="310" y="120" width="120" height="180" as="geometry" />
        </mxCell>
        <mxCell id="O8rrX48du7Tco0QoKG7b-3" value="Supérieur" style="shape=umlLifeline;perimeter=lifelinePerimeter;container=1;collapsible=0;recursiveResize=0;rounded=0;shadow=0;strokeWidth=1;" parent="O8rrX48du7Tco0QoKG7b-1" vertex="1">
          <mxGeometry x="64" y="120" width="100" height="180" as="geometry" />
        </mxCell>
        <mxCell id="O8rrX48du7Tco0QoKG7b-4" value="alt" style="shape=umlFrame;whiteSpace=wrap;html=1;" parent="O8rrX48du7Tco0QoKG7b-1" vertex="1">
          <mxGeometry x="24" y="380" width="780" height="75.18" as="geometry" />
        </mxCell>
        <mxCell id="O8rrX48du7Tco0QoKG7b-23" value="" style="points=[];perimeter=orthogonalPerimeter;rounded=0;shadow=0;strokeWidth=1;" parent="O8rrX48du7Tco0QoKG7b-1" vertex="1">
          <mxGeometry x="109" y="208" width="10" height="30" as="geometry" />
        </mxCell>
        <mxCell id="O8rrX48du7Tco0QoKG7b-24" value="" style="endArrow=blockThin;endFill=1;endSize=12;html=1;entryX=-0.2;entryY=-0.033;entryDx=0;entryDy=0;entryPerimeter=0;" parent="O8rrX48du7Tco0QoKG7b-1" edge="1">
          <mxGeometry width="160" relative="1" as="geometry">
            <mxPoint x="114" y="208" as="sourcePoint" />
            <mxPoint x="367" y="208.01" as="targetPoint" />
            <Array as="points" />
          </mxGeometry>
        </mxCell>
        <mxCell id="O8rrX48du7Tco0QoKG7b-25" value="" style="endArrow=blockThin;endFill=1;endSize=12;html=1;dashed=1;" parent="O8rrX48du7Tco0QoKG7b-1" edge="1">
          <mxGeometry width="160" relative="1" as="geometry">
            <mxPoint x="367.5" y="238" as="sourcePoint" />
            <mxPoint x="118" y="238" as="targetPoint" />
          </mxGeometry>
        </mxCell>
        <mxCell id="O8rrX48du7Tco0QoKG7b-26" value="True" style="text;html=1;align=center;verticalAlign=middle;resizable=0;points=[];autosize=1;strokeColor=none;" parent="O8rrX48du7Tco0QoKG7b-1" vertex="1">
          <mxGeometry x="259" y="219.00000000000006" width="40" height="20" as="geometry" />
        </mxCell>
        <mxCell id="O8rrX48du7Tco0QoKG7b-27" value="Attribution des Taches" style="text;html=1;align=center;verticalAlign=middle;resizable=0;points=[];autosize=1;strokeColor=none;" parent="O8rrX48du7Tco0QoKG7b-1" vertex="1">
          <mxGeometry x="199" y="190" width="130" height="20" as="geometry" />
        </mxCell>
        <mxCell id="O8rrX48du7Tco0QoKG7b-37" value="" style="points=[];perimeter=orthogonalPerimeter;rounded=0;shadow=0;strokeWidth=1;" parent="O8rrX48du7Tco0QoKG7b-1" vertex="1">
          <mxGeometry x="772.5" y="210" width="10" height="20" as="geometry" />
        </mxCell>
        <mxCell id="O8rrX48du7Tco0QoKG7b-38" value="" style="html=1;verticalAlign=bottom;endArrow=block;strokeColor=#000000;entryX=0.489;entryY=0.414;entryDx=0;entryDy=0;entryPerimeter=0;" parent="O8rrX48du7Tco0QoKG7b-1" edge="1">
          <mxGeometry width="80" relative="1" as="geometry">
            <mxPoint x="369.5" y="211.99700000000007" as="sourcePoint" />
            <mxPoint x="772.0149999999999" y="210.94" as="targetPoint" />
          </mxGeometry>
        </mxCell>
        <mxCell id="O8rrX48du7Tco0QoKG7b-39" value="Envoi requête de création des taches &lt;br&gt;( ID Supérieur, ID employé, information tache)" style="edgeLabel;html=1;align=center;verticalAlign=middle;resizable=0;points=[];" parent="O8rrX48du7Tco0QoKG7b-38" vertex="1" connectable="0">
          <mxGeometry x="0.1581" y="2" relative="1" as="geometry">
            <mxPoint x="-29" y="-14" as="offset" />
          </mxGeometry>
        </mxCell>
        <mxCell id="O8rrX48du7Tco0QoKG7b-40" value="" style="endArrow=blockThin;endFill=1;endSize=12;html=1;dashed=1;entryX=1.271;entryY=0.729;entryDx=0;entryDy=0;entryPerimeter=0;" parent="O8rrX48du7Tco0QoKG7b-1" edge="1">
          <mxGeometry width="160" relative="1" as="geometry">
            <mxPoint x="771" y="230" as="sourcePoint" />
            <mxPoint x="375.71000000000004" y="229.85000000000002" as="targetPoint" />
          </mxGeometry>
        </mxCell>
        <mxCell id="O8rrX48du7Tco0QoKG7b-41" value="True" style="text;html=1;align=center;verticalAlign=middle;resizable=0;points=[];autosize=1;strokeColor=none;" parent="O8rrX48du7Tco0QoKG7b-1" vertex="1">
          <mxGeometry x="551" y="211.95999999999998" width="40" height="20" as="geometry" />
        </mxCell>
        <mxCell id="G2HZiYfbmAiNrdXgRJdk-0" value="" style="shape=umlActor;verticalLabelPosition=bottom;verticalAlign=top;html=1;" vertex="1" parent="O8rrX48du7Tco0QoKG7b-1">
          <mxGeometry x="99" y="60" width="30" height="60" as="geometry" />
        </mxCell>
        <mxCell id="ecS7ZHccl1tnOUyKelAI-1" value="" style="points=[];perimeter=orthogonalPerimeter;rounded=0;shadow=0;strokeWidth=1;" vertex="1" parent="O8rrX48du7Tco0QoKG7b-1">
          <mxGeometry x="365" y="207.98" width="10" height="30" as="geometry" />
        </mxCell>
      </root>
    </mxGraphModel>
  </diagram>
  <diagram id="XvSBaMHPTziIzfNWIDsp" name="Page-4">
    <mxGraphModel dx="41" dy="450" grid="1" gridSize="10" guides="1" tooltips="1" connect="1" arrows="1" fold="1" page="1" pageScale="1" pageWidth="827" pageHeight="1169" math="0" shadow="0">
      <root>
        <mxCell id="3ZFx33d2AV8vLjo_OPaf-0" />
        <mxCell id="3ZFx33d2AV8vLjo_OPaf-1" parent="3ZFx33d2AV8vLjo_OPaf-0" />
        <mxCell id="3ZFx33d2AV8vLjo_OPaf-2" value="Communication App" style="shape=umlLifeline;perimeter=lifelinePerimeter;container=1;collapsible=0;recursiveResize=0;rounded=0;shadow=0;strokeWidth=1;" parent="3ZFx33d2AV8vLjo_OPaf-1" vertex="1">
          <mxGeometry x="1222.5" y="160" width="115" height="270" as="geometry" />
        </mxCell>
        <mxCell id="3ZFx33d2AV8vLjo_OPaf-3" value="Supérieur" style="shape=umlLifeline;perimeter=lifelinePerimeter;container=1;collapsible=0;recursiveResize=0;rounded=0;shadow=0;strokeWidth=1;" parent="3ZFx33d2AV8vLjo_OPaf-1" vertex="1">
          <mxGeometry x="870" y="174" width="100" height="266" as="geometry" />
        </mxCell>
        <mxCell id="3ZFx33d2AV8vLjo_OPaf-4" value="API Communication App" style="shape=umlLifeline;perimeter=lifelinePerimeter;container=1;collapsible=0;recursiveResize=0;rounded=0;shadow=0;strokeWidth=1;" parent="3ZFx33d2AV8vLjo_OPaf-1" vertex="1">
          <mxGeometry x="1495" y="160" width="135" height="280" as="geometry" />
        </mxCell>
        <mxCell id="3ZFx33d2AV8vLjo_OPaf-5" value="Publication d&#39;une note de Service" style="html=1;verticalAlign=bottom;endArrow=block;strokeColor=#000000;" parent="3ZFx33d2AV8vLjo_OPaf-1" edge="1">
          <mxGeometry width="80" relative="1" as="geometry">
            <mxPoint x="920" y="238" as="sourcePoint" />
            <mxPoint x="1279.5" y="238" as="targetPoint" />
            <Array as="points">
              <mxPoint x="940" y="238" />
              <mxPoint x="1020" y="238" />
              <mxPoint x="1090" y="238" />
            </Array>
          </mxGeometry>
        </mxCell>
        <mxCell id="3ZFx33d2AV8vLjo_OPaf-6" value="" style="endArrow=blockThin;endFill=1;endSize=12;html=1;dashed=1;exitX=0.5;exitY=1;exitDx=0;exitDy=0;exitPerimeter=0;" parent="3ZFx33d2AV8vLjo_OPaf-1" edge="1">
          <mxGeometry width="160" relative="1" as="geometry">
            <mxPoint x="1280" y="283" as="sourcePoint" />
            <mxPoint x="919.5" y="283" as="targetPoint" />
          </mxGeometry>
        </mxCell>
        <mxCell id="3ZFx33d2AV8vLjo_OPaf-7" value="" style="points=[];perimeter=orthogonalPerimeter;rounded=0;shadow=0;strokeWidth=1;" parent="3ZFx33d2AV8vLjo_OPaf-1" vertex="1">
          <mxGeometry x="915" y="239" width="10" height="43" as="geometry" />
        </mxCell>
        <mxCell id="3ZFx33d2AV8vLjo_OPaf-8" value="Publier" style="text;html=1;align=center;verticalAlign=middle;resizable=0;points=[];autosize=1;strokeColor=none;" parent="3ZFx33d2AV8vLjo_OPaf-1" vertex="1">
          <mxGeometry x="1075" y="264" width="50" height="20" as="geometry" />
        </mxCell>
        <mxCell id="3ZFx33d2AV8vLjo_OPaf-9" value="" style="points=[];perimeter=orthogonalPerimeter;rounded=0;shadow=0;strokeWidth=1;" parent="3ZFx33d2AV8vLjo_OPaf-1" vertex="1">
          <mxGeometry x="1275" y="239" width="10" height="43" as="geometry" />
        </mxCell>
        <mxCell id="3ZFx33d2AV8vLjo_OPaf-10" value="Modification d&#39;une note de Service" style="html=1;verticalAlign=bottom;endArrow=block;strokeColor=#000000;" parent="3ZFx33d2AV8vLjo_OPaf-1" edge="1">
          <mxGeometry width="80" relative="1" as="geometry">
            <mxPoint x="920" y="317.9100000000001" as="sourcePoint" />
            <mxPoint x="1279.5" y="317.9100000000001" as="targetPoint" />
            <Array as="points">
              <mxPoint x="940" y="317.91" />
              <mxPoint x="1020" y="317.91" />
              <mxPoint x="1090" y="317.91" />
            </Array>
          </mxGeometry>
        </mxCell>
        <mxCell id="3ZFx33d2AV8vLjo_OPaf-11" value="" style="endArrow=blockThin;endFill=1;endSize=12;html=1;dashed=1;exitX=0.5;exitY=1;exitDx=0;exitDy=0;exitPerimeter=0;" parent="3ZFx33d2AV8vLjo_OPaf-1" edge="1">
          <mxGeometry width="160" relative="1" as="geometry">
            <mxPoint x="1280" y="348.9100000000001" as="sourcePoint" />
            <mxPoint x="919.5" y="348.9100000000001" as="targetPoint" />
          </mxGeometry>
        </mxCell>
        <mxCell id="3ZFx33d2AV8vLjo_OPaf-12" value="" style="points=[];perimeter=orthogonalPerimeter;rounded=0;shadow=0;strokeWidth=1;" parent="3ZFx33d2AV8vLjo_OPaf-1" vertex="1">
          <mxGeometry x="915" y="318.91" width="10" height="30" as="geometry" />
        </mxCell>
        <mxCell id="3ZFx33d2AV8vLjo_OPaf-13" value="Modifier" style="text;html=1;align=center;verticalAlign=middle;resizable=0;points=[];autosize=1;strokeColor=none;" parent="3ZFx33d2AV8vLjo_OPaf-1" vertex="1">
          <mxGeometry x="1070" y="328.91" width="60" height="20" as="geometry" />
        </mxCell>
        <mxCell id="3ZFx33d2AV8vLjo_OPaf-14" value="" style="points=[];perimeter=orthogonalPerimeter;rounded=0;shadow=0;strokeWidth=1;" parent="3ZFx33d2AV8vLjo_OPaf-1" vertex="1">
          <mxGeometry x="1275" y="318.91" width="10" height="30" as="geometry" />
        </mxCell>
        <mxCell id="3ZFx33d2AV8vLjo_OPaf-15" value="" style="points=[];perimeter=orthogonalPerimeter;rounded=0;shadow=0;strokeWidth=1;" parent="3ZFx33d2AV8vLjo_OPaf-1" vertex="1">
          <mxGeometry x="1557.5" y="250" width="10" height="21" as="geometry" />
        </mxCell>
        <mxCell id="3ZFx33d2AV8vLjo_OPaf-16" value="Création de la note de service" style="html=1;verticalAlign=bottom;endArrow=block;strokeColor=#000000;entryX=0.485;entryY=0.011;entryDx=0;entryDy=0;entryPerimeter=0;" parent="3ZFx33d2AV8vLjo_OPaf-1" target="3ZFx33d2AV8vLjo_OPaf-15" edge="1">
          <mxGeometry width="80" relative="1" as="geometry">
            <mxPoint x="1285" y="252.81999999999994" as="sourcePoint" />
            <mxPoint x="1555" y="253" as="targetPoint" />
          </mxGeometry>
        </mxCell>
        <mxCell id="3ZFx33d2AV8vLjo_OPaf-17" value="" style="endArrow=blockThin;endFill=1;endSize=12;html=1;dashed=1;exitX=0.481;exitY=0.404;exitDx=0;exitDy=0;exitPerimeter=0;entryX=1.1;entryY=0.86;entryDx=0;entryDy=0;entryPerimeter=0;" parent="3ZFx33d2AV8vLjo_OPaf-1" source="3ZFx33d2AV8vLjo_OPaf-4" target="3ZFx33d2AV8vLjo_OPaf-9" edge="1">
          <mxGeometry width="160" relative="1" as="geometry">
            <mxPoint x="1555" y="282" as="sourcePoint" />
            <mxPoint x="1285" y="270" as="targetPoint" />
          </mxGeometry>
        </mxCell>
        <mxCell id="3ZFx33d2AV8vLjo_OPaf-18" value="True" style="text;html=1;align=center;verticalAlign=middle;resizable=0;points=[];autosize=1;strokeColor=none;" parent="3ZFx33d2AV8vLjo_OPaf-1" vertex="1">
          <mxGeometry x="1395" y="252" width="40" height="20" as="geometry" />
        </mxCell>
        <mxCell id="3ZFx33d2AV8vLjo_OPaf-19" value="" style="points=[];perimeter=orthogonalPerimeter;rounded=0;shadow=0;strokeWidth=1;" parent="3ZFx33d2AV8vLjo_OPaf-1" vertex="1">
          <mxGeometry x="1557.5" y="318.90999999999997" width="10" height="21" as="geometry" />
        </mxCell>
        <mxCell id="3ZFx33d2AV8vLjo_OPaf-20" value="Modification de la note de service" style="html=1;verticalAlign=bottom;endArrow=block;strokeColor=#000000;entryX=0.485;entryY=0.011;entryDx=0;entryDy=0;entryPerimeter=0;" parent="3ZFx33d2AV8vLjo_OPaf-1" target="3ZFx33d2AV8vLjo_OPaf-19" edge="1">
          <mxGeometry width="80" relative="1" as="geometry">
            <mxPoint x="1285" y="321.7299999999999" as="sourcePoint" />
            <mxPoint x="1555" y="321.90999999999997" as="targetPoint" />
          </mxGeometry>
        </mxCell>
        <mxCell id="3ZFx33d2AV8vLjo_OPaf-21" value="" style="endArrow=blockThin;endFill=1;endSize=12;html=1;dashed=1;exitX=0.481;exitY=0.574;exitDx=0;exitDy=0;exitPerimeter=0;" parent="3ZFx33d2AV8vLjo_OPaf-1" edge="1">
          <mxGeometry width="160" relative="1" as="geometry">
            <mxPoint x="1559.9350000000004" y="339.11799999999994" as="sourcePoint" />
            <mxPoint x="1285" y="338.90999999999985" as="targetPoint" />
          </mxGeometry>
        </mxCell>
        <mxCell id="3ZFx33d2AV8vLjo_OPaf-22" value="True" style="text;html=1;align=center;verticalAlign=middle;resizable=0;points=[];autosize=1;strokeColor=none;" parent="3ZFx33d2AV8vLjo_OPaf-1" vertex="1">
          <mxGeometry x="1395" y="320.90999999999997" width="40" height="20" as="geometry" />
        </mxCell>
        <mxCell id="TYynvfcu4RTkaPm2Skov-0" value="Suppression d&#39;une note de Service" style="html=1;verticalAlign=bottom;endArrow=block;strokeColor=#000000;" parent="3ZFx33d2AV8vLjo_OPaf-1" edge="1">
          <mxGeometry width="80" relative="1" as="geometry">
            <mxPoint x="919" y="388.0000000000001" as="sourcePoint" />
            <mxPoint x="1278.5" y="388.0000000000001" as="targetPoint" />
            <Array as="points">
              <mxPoint x="939" y="388" />
              <mxPoint x="1019" y="388" />
              <mxPoint x="1089" y="388" />
            </Array>
          </mxGeometry>
        </mxCell>
        <mxCell id="TYynvfcu4RTkaPm2Skov-1" value="" style="endArrow=blockThin;endFill=1;endSize=12;html=1;dashed=1;exitX=0.5;exitY=1;exitDx=0;exitDy=0;exitPerimeter=0;" parent="3ZFx33d2AV8vLjo_OPaf-1" edge="1">
          <mxGeometry width="160" relative="1" as="geometry">
            <mxPoint x="1279" y="419.0000000000001" as="sourcePoint" />
            <mxPoint x="918.5" y="419.0000000000001" as="targetPoint" />
          </mxGeometry>
        </mxCell>
        <mxCell id="TYynvfcu4RTkaPm2Skov-2" value="" style="points=[];perimeter=orthogonalPerimeter;rounded=0;shadow=0;strokeWidth=1;" parent="3ZFx33d2AV8vLjo_OPaf-1" vertex="1">
          <mxGeometry x="914" y="389" width="10" height="30" as="geometry" />
        </mxCell>
        <mxCell id="TYynvfcu4RTkaPm2Skov-3" value="Modifier" style="text;html=1;align=center;verticalAlign=middle;resizable=0;points=[];autosize=1;strokeColor=none;" parent="3ZFx33d2AV8vLjo_OPaf-1" vertex="1">
          <mxGeometry x="1069" y="399" width="60" height="20" as="geometry" />
        </mxCell>
        <mxCell id="TYynvfcu4RTkaPm2Skov-4" value="" style="points=[];perimeter=orthogonalPerimeter;rounded=0;shadow=0;strokeWidth=1;" parent="3ZFx33d2AV8vLjo_OPaf-1" vertex="1">
          <mxGeometry x="1274" y="390" width="10" height="29" as="geometry" />
        </mxCell>
        <mxCell id="TYynvfcu4RTkaPm2Skov-5" value="" style="points=[];perimeter=orthogonalPerimeter;rounded=0;shadow=0;strokeWidth=1;" parent="3ZFx33d2AV8vLjo_OPaf-1" vertex="1">
          <mxGeometry x="1556.5" y="389" width="10" height="21" as="geometry" />
        </mxCell>
        <mxCell id="TYynvfcu4RTkaPm2Skov-6" value="Modification de la note de service" style="html=1;verticalAlign=bottom;endArrow=block;strokeColor=#000000;entryX=0.485;entryY=0.011;entryDx=0;entryDy=0;entryPerimeter=0;" parent="3ZFx33d2AV8vLjo_OPaf-1" target="TYynvfcu4RTkaPm2Skov-5" edge="1">
          <mxGeometry width="80" relative="1" as="geometry">
            <mxPoint x="1284" y="391.81999999999994" as="sourcePoint" />
            <mxPoint x="1554" y="392" as="targetPoint" />
          </mxGeometry>
        </mxCell>
        <mxCell id="TYynvfcu4RTkaPm2Skov-7" value="" style="endArrow=blockThin;endFill=1;endSize=12;html=1;dashed=1;exitX=0.481;exitY=0.574;exitDx=0;exitDy=0;exitPerimeter=0;" parent="3ZFx33d2AV8vLjo_OPaf-1" edge="1">
          <mxGeometry width="160" relative="1" as="geometry">
            <mxPoint x="1558.9350000000004" y="409.20799999999997" as="sourcePoint" />
            <mxPoint x="1284" y="408.9999999999999" as="targetPoint" />
          </mxGeometry>
        </mxCell>
        <mxCell id="TYynvfcu4RTkaPm2Skov-8" value="True" style="text;html=1;align=center;verticalAlign=middle;resizable=0;points=[];autosize=1;strokeColor=none;" parent="3ZFx33d2AV8vLjo_OPaf-1" vertex="1">
          <mxGeometry x="1394" y="391" width="40" height="20" as="geometry" />
        </mxCell>
      </root>
    </mxGraphModel>
  </diagram>
  <diagram id="9DlRMom5_IF1S97Ls2tZ" name="Page-5">
    <mxGraphModel dx="41" dy="450" grid="1" gridSize="10" guides="1" tooltips="1" connect="1" arrows="1" fold="1" page="1" pageScale="1" pageWidth="827" pageHeight="1169" math="0" shadow="0">
      <root>
        <mxCell id="wffdwIWtCZuyjEUuqT53-0" />
        <mxCell id="wffdwIWtCZuyjEUuqT53-1" parent="wffdwIWtCZuyjEUuqT53-0" />
        <mxCell id="wffdwIWtCZuyjEUuqT53-2" value="API Communication App" style="shape=umlLifeline;perimeter=lifelinePerimeter;container=1;collapsible=0;recursiveResize=0;rounded=0;shadow=0;strokeWidth=1;" parent="wffdwIWtCZuyjEUuqT53-1" vertex="1">
          <mxGeometry x="1486" y="248.5" width="135" height="150" as="geometry" />
        </mxCell>
        <mxCell id="wffdwIWtCZuyjEUuqT53-3" value="Supérieur" style="shape=umlLifeline;perimeter=lifelinePerimeter;container=1;collapsible=0;recursiveResize=0;rounded=0;shadow=0;strokeWidth=1;" parent="wffdwIWtCZuyjEUuqT53-1" vertex="1">
          <mxGeometry x="861" y="248.5" width="100" height="151.5" as="geometry" />
        </mxCell>
        <mxCell id="wffdwIWtCZuyjEUuqT53-4" value="Communication App" style="shape=umlLifeline;perimeter=lifelinePerimeter;container=1;collapsible=0;recursiveResize=0;rounded=0;shadow=0;strokeWidth=1;" parent="wffdwIWtCZuyjEUuqT53-1" vertex="1">
          <mxGeometry x="1213.5" y="248.5" width="115" height="151.5" as="geometry" />
        </mxCell>
        <mxCell id="wffdwIWtCZuyjEUuqT53-5" value="Création des conférences téléphonique" style="html=1;verticalAlign=bottom;endArrow=block;strokeColor=#000000;" parent="wffdwIWtCZuyjEUuqT53-1" edge="1">
          <mxGeometry width="80" relative="1" as="geometry">
            <mxPoint x="911" y="318.5" as="sourcePoint" />
            <mxPoint x="1270.5" y="318.5" as="targetPoint" />
            <Array as="points">
              <mxPoint x="931" y="318.5" />
              <mxPoint x="1011" y="318.5" />
              <mxPoint x="1081" y="318.5" />
            </Array>
          </mxGeometry>
        </mxCell>
        <mxCell id="wffdwIWtCZuyjEUuqT53-6" value="" style="endArrow=blockThin;endFill=1;endSize=12;html=1;dashed=1;exitX=0.5;exitY=1;exitDx=0;exitDy=0;exitPerimeter=0;" parent="wffdwIWtCZuyjEUuqT53-1" edge="1">
          <mxGeometry width="160" relative="1" as="geometry">
            <mxPoint x="1271.4999999999995" y="363.5" as="sourcePoint" />
            <mxPoint x="911" y="363.5" as="targetPoint" />
          </mxGeometry>
        </mxCell>
        <mxCell id="wffdwIWtCZuyjEUuqT53-7" value="" style="points=[];perimeter=orthogonalPerimeter;rounded=0;shadow=0;strokeWidth=1;" parent="wffdwIWtCZuyjEUuqT53-1" vertex="1">
          <mxGeometry x="906" y="319.5" width="10" height="44" as="geometry" />
        </mxCell>
        <mxCell id="wffdwIWtCZuyjEUuqT53-8" value="Numero de la salle de conférence" style="text;html=1;align=center;verticalAlign=middle;resizable=0;points=[];autosize=1;strokeColor=none;" parent="wffdwIWtCZuyjEUuqT53-1" vertex="1">
          <mxGeometry x="996" y="337.2" width="190" height="20" as="geometry" />
        </mxCell>
        <mxCell id="wffdwIWtCZuyjEUuqT53-9" value="" style="points=[];perimeter=orthogonalPerimeter;rounded=0;shadow=0;strokeWidth=1;" parent="wffdwIWtCZuyjEUuqT53-1" vertex="1">
          <mxGeometry x="1266" y="319.5" width="10" height="44" as="geometry" />
        </mxCell>
        <mxCell id="wffdwIWtCZuyjEUuqT53-10" value="" style="points=[];perimeter=orthogonalPerimeter;rounded=0;shadow=0;strokeWidth=1;" parent="wffdwIWtCZuyjEUuqT53-1" vertex="1">
          <mxGeometry x="1548.5" y="330.90999999999997" width="10" height="32.59" as="geometry" />
        </mxCell>
        <mxCell id="wffdwIWtCZuyjEUuqT53-11" value="Envoi requête de création de conférence( ID Équipe)" style="html=1;verticalAlign=bottom;endArrow=block;strokeColor=#000000;entryX=0.485;entryY=0.011;entryDx=0;entryDy=0;entryPerimeter=0;" parent="wffdwIWtCZuyjEUuqT53-1" target="wffdwIWtCZuyjEUuqT53-10" edge="1">
          <mxGeometry width="80" relative="1" as="geometry">
            <mxPoint x="1276" y="331" as="sourcePoint" />
            <mxPoint x="1546" y="333.90999999999997" as="targetPoint" />
          </mxGeometry>
        </mxCell>
        <mxCell id="wffdwIWtCZuyjEUuqT53-12" value="" style="endArrow=blockThin;endFill=1;endSize=12;html=1;dashed=1;" parent="wffdwIWtCZuyjEUuqT53-1" edge="1" source="wffdwIWtCZuyjEUuqT53-2">
          <mxGeometry width="160" relative="1" as="geometry">
            <mxPoint x="1530" y="379" as="sourcePoint" />
            <mxPoint x="1276" y="362.3199999999998" as="targetPoint" />
          </mxGeometry>
        </mxCell>
        <mxCell id="wffdwIWtCZuyjEUuqT53-13" value="Numéro de la conférence" style="edgeLabel;html=1;align=center;verticalAlign=middle;resizable=0;points=[];" parent="wffdwIWtCZuyjEUuqT53-12" vertex="1" connectable="0">
          <mxGeometry x="0.1292" y="-3" relative="1" as="geometry">
            <mxPoint x="10" y="-7" as="offset" />
          </mxGeometry>
        </mxCell>
      </root>
    </mxGraphModel>
  </diagram>
</mxfile>
